# ProBuilder 4.5.2
# https://unity3d.com/unity/features/worldbuilding/probuilder
# 2022-05-19 12:32:13 AM

mtllib ./grasslands_ground.mtl
o grasslands ground

g New Game Object
v 4.017447 2.827225 4.117984
v 2.006376 3.154641 4.418756
v 0.002511978 3.154641 5.158169
v -1.71962 2.517444 6.825846
v -1.733393 2.703152 8.489363
v -1.304796 2.851534 9.819592
v -0.06339264 2.832588 10.93025
v 1.559713 3.154641 11.58661
v 3.021654 3.154641 11.81736
v 4.864359 3.154641 11.72639
v 7.520864 3.154641 10.79144
v 8.711489 3.154641 10.42398
v 9.87488 3.154641 9.971373
v 10.84208 3.154641 9.618206
v 12.33373 3.154641 8.874023
v 13.60456 3.154641 8.199011
v 14.43221 3.154641 7.435892
v 14.75242 3.154641 6.773031
v 15.03308 3.154641 5.790371
v 14.46019 3.154641 4.119653
v 13.03462 3.15464 2.545139
v 11.23263 3.154641 1.968445
v 8.575602 3.154641 1.815143
v 6.830622 3.154641 2.237694
v 5.085142 3.154641 3.058843
v -14.49274 0.7901268 6.840485
v -10.14236 9.536743E-07 2.627668
v -15.81066 0.6864338 11.04279
v -10.30885 0.4420004 17.20885
v -15.65427 0.8876629 14.40316
v -6.208624 0 18.86693
v -5.080284 0 0.7597971
v -2.515537 0 19.44985
v 0 0 0
v 2.139429 0 19.22002
v 8.850183 0 16.85821
v 11.85788 0 15.92993
v 2.697161 0 -2.675558
v 7.10652 0 -4.749908
v 14.79679 0 14.78658
v 11.51461 0 -5.817338
v 17.2401 0 13.89443
v 18.22669 0 -5.430073
v 24.33084 0 14.10021
v 22.77878 -1.907349E-06 -3.973252
v 26.38 0 0.004216194
v 24.21854 0 10.30931
v 27.11822 0 6.707069
v 26.30933 0 8.381556
v 27.82722 0 4.224711
v -6.779219 1.710471 6.700806
v -2.305204 2.339688 4.258766
v -4.492579 1.977788 9.136751
v -2.388248 2.63805 12.71103
v -3.952513 1.977788 11.08465
v -0.3430061 2.568444 13.67216
v 0.2198219 2.031119 3.176018
v 1.499151 3.053942 14.01006
v 2.753931 1.786682 1.375672
v 3.821104 3.053942 13.87684
v 7.168509 3.053942 12.50777
v 8.668787 3.053942 11.96967
v 4.099306 2.068679 1.18465
v 6.29875 3.053942 -0.01778603
v 10.13475 3.053942 11.30691
v 8.497557 3.053942 -0.6365433
v 11.3535 3.053942 10.78976
v 11.84562 3.053942 -0.412056
v 13.2331 3.053942 9.700024
v 14.11626 3.053941 0.4324188
v 15.9126 3.053942 2.738031
v 16.70632 2.684774 9.642416
v 18.16859 2.589931 6.62347
v 17.74924 2.684774 8.524954
v 18.52225 2.589931 5.184523

vt -4.072561 4.126347
vt -2.068357 4.428237
vt -0.06488476 5.167768
vt 1.669509 6.833597
vt 1.679607 8.497673
vt 1.248161 9.828322
vt 0.007374574 10.93884
vt -1.621782 11.59609
vt -3.083437 11.82675
vt -4.925781 11.73566
vt -7.581768 10.80056
vt -8.772159 10.43303
vt -9.935323 9.980353
vt -10.90233 9.627131
vt -12.39369 8.882861
vt -13.66427 8.207775
vt -14.49176 7.44461
vt -14.81191 6.781733
vt -15.09251 5.79906
vt -14.51973 4.128384
vt -13.09444 2.553964
vt -11.29281 1.977381
vt -8.636298 1.82424
vt -6.89166 2.246894
vt -5.146521 3.068145
vt -14.5008 6.841728
vt -10.1417 2.62743
vt -15.81746 11.04379
vt -10.31322 17.20947
vt -15.66338 14.40455
vt -6.20822 18.86675
vt -5.079954 0.759679
vt -2.515374 19.44975
vt 0 0
vt 2.13929 19.22003
vt 8.849608 16.85838
vt 11.85711 15.93017
vt 2.696985 -2.675491
vt 7.106058 -4.749736
vt 14.79583 14.78689
vt 11.51386 -5.817062
vt 17.23898 13.8948
vt 18.2255 -5.429644
vt 24.32926 14.10074
vt 22.7773 -3.972722
vt 26.37829 0.004821492
vt 24.21696 10.30985
vt 27.11646 6.707678
vt 26.30762 8.382142
vt 27.82541 4.225341
vt 14.28269 7.300015
vt 10.06398 2.884095
vt 6.514585 7.153602
vt 1.997071 4.844626
vt 15.62608 11.07122
vt 14.30499 6.868626
vt 4.234584 9.165049
vt 6.536795 6.729246
vt 10.22793 15.9228
vt 15.51203 12.96942
vt 2.14259 11.18822
vt 3.759665 9.804811
vt 15.46666 14.5219
vt 15.64388 11.15655
vt 3.715624 11.19848
vt 4.252527 9.256639
vt 6.196239 17.22911
vt 10.26038 15.42933
vt 0.1801718 11.59041
vt 2.21694 10.62771
vt 9.9625 3.204022
vt 4.990191 1.108852
vt 1.825651 5.033605
vt -0.5967423 3.716561
vt 2.507652 17.29853
vt 6.189162 16.64648
vt -1.736073 11.2136
vt 0.1387209 11.06309
vt 5.057673 0.8980683
vt -0.4102638 3.754003
vt -2.910057 1.973788
vt -2.138551 16.59267
vt 2.514504 16.8584
vt -3.73203 10.41489
vt -1.41103 10.56351
vt -8.648044 13.45938
vt -2.090564 16.21833
vt -6.355798 8.377401
vt -3.084849 9.917079
vt -11.64813 12.46751
vt -8.693637 13.55329
vt -7.943586 7.835361
vt -6.469845 8.441131
vt -2.476456 -2.881051
vt -3.236434 1.481329
vt -4.583442 1.202272
vt -2.636732 -2.674109
vt -6.947302 -4.946633
vt -4.442904 1.554886
vt -6.800461 0.661606
vt -14.43759 11.29563
vt -11.57003 12.60769
vt -9.219904 7.302502
vt -7.78953 8.037533
vt -7.013937 -4.589008
vt -11.3646 -5.870571
vt -6.708043 1.092406
vt -8.878204 0.3812581
vt -16.86446 10.30938
vt -14.47438 11.33566
vt -10.47208 6.737944
vt -9.279886 7.312573
vt -11.50838 -4.866439
vt -18.21683 -4.420679
vt -8.392524 1.096886
vt -11.73878 1.346442
vt -24.3251 11.60413
vt -17.23603 11.34706
vt -13.29633 6.107369
vt -11.41717 6.95523
vt -18.05451 -4.006851
vt -22.56361 -2.421934
vt -11.31495 1.452394
vt -13.56414 2.351244
vt -22.14279 -2.775716
vt -25.64346 1.290527
vt -13.00552 1.728287
vt -14.7517 4.07116
vt -22.79903 10.39044
vt -22.90475 14.18152
vt -14.82147 9.723505
vt -11.42729 9.772875
vt -26.05841 5.652829
vt -25.28113 7.342222
vt -16.74156 5.568486
vt -16.31234 7.4565
vt -25.0617 5.450277
vt -23.07005 7.480308
vt -16.09058 5.601284
vt -15.09712 6.761907
vt -25.48223 0.6070529
vt -26.88019 4.844117
vt -14.58111 3.3516
vt -17.22197 5.808562
vt -26.74894 3.609532
vt -26.06742 6.099573
vt -17.09055 4.572313
vt -16.7506 6.014474
vt 6.427394 6.787007
vt 1.910054 4.343668
vt 1.303848 6.912114
vt -0.4968636 5.25705
vt 3.916671 8.761221
vt 6.203439 6.310771
vt 1.06461 8.109978
vt 1.093954 6.476285
vt 1.744328 13.06154
vt 3.41601 11.40823
vt -0.5658413 11.25127
vt 0.6405044 10.21148
vt 3.241375 10.8191
vt 3.759876 8.865352
vt 0.4549429 9.550243
vt 0.907937 8.225741
vt 0.1663417 12.8079
vt 2.202018 11.8242
vt -1.772049 10.67339
vt -0.1307014 10.07684
vt 1.992543 4.993629
vt -0.4736023 3.74405
vt -0.3993646 6.031611
vt -2.387308 5.265071
vt -2.173549 14.22041
vt -0.268908 13.88017
vt -3.677207 12.01245
vt -2.256038 11.82354
vt -0.7417304 3.691572
vt -3.124486 1.680309
vt -2.759407 5.079901
vt -4.615578 4.436029
vt -3.812649 13.71333
vt -1.490705 13.84671
vt -4.855622 11.56038
vt -3.012924 11.6515
vt -7.086077 12.27515
vt -3.73982 13.64702
vt -7.435675 10.55531
vt -4.780081 11.49278
vt -8.59432 11.73003
vt -7.09446 12.26929
vt -8.634634 10.18099
vt -7.444342 10.54951
vt -3.102321 1.60001
vt -4.47605 1.402745
vt -4.578688 4.431937
vt -5.693762 3.421667
vt -4.580905 1.084193
vt -6.975084 -0.1495237
vt -5.983066 3.007141
vt -7.483802 2.00737
vt -10.03414 11.04701
vt -8.568895 11.71136
vt -9.771243 9.708275
vt -8.608422 10.16232
vt -6.334292 0.1068591
vt -8.532946 -0.5124402
vt -6.867313 2.364315
vt -8.612172 1.941273
vt -11.25419 10.51559
vt -10.03602 11.0341
vt -10.73992 9.340965
vt -9.773176 9.695358
vt -8.489096 -0.509443
vt -11.83715 -0.2847656
vt -8.566862 1.944319
vt -11.22388 2.097793
vt -13.08849 9.403271
vt -11.21066 10.49604
vt -12.18561 8.574971
vt -10.69536 9.321896
vt -11.80056 -0.2874058
vt -14.07096 0.5576979
vt -11.18618 2.094868
vt -12.98798 2.672131
vt -13.99399 0.5348878
vt -15.7891 2.841453
vt -12.90936 2.648481
vt -14.33396 4.223855
vt -16.32214 9.186686
vt -12.82935 9.244543
vt -13.18787 7.73702
vt -11.92438 8.421768
vt -17.50612 6.696532
vt -17.07693 8.598186
vt -14.04359 6.846107
vt -13.72764 7.508212
vt -17.3564 8.023436
vt -16.31957 9.146539
vt -14.00805 6.928877
vt -13.18522 7.697093
vt -15.41601 2.449744
vt -18.06293 4.900206
vt -13.96225 3.833607
vt -14.53079 5.497608
vt -17.83136 4.94925
vt -17.48265 6.389404
vt -14.29688 5.555606
vt -14.02014 6.539358

vn -0.01459746 0.9918116 -0.009811285
vn 0.05250132 0.9957606 -0.007204521
vn -0.2001815 0.9644729 0.0004134951
vn -0.4318404 0.8959805 -0.1035989
vn -0.1428803 0.95237 -0.06992788
vn 0.1575462 0.9745507 -0.1594686
vn -0.07044644 0.9788206 -0.0180719
vn -0.07151293 0.9917774 0.01732302
vn 0.05179761 0.995455 -0.02145755
vn -0.008335754 0.9990605 -0.04206523
vn -0.01378935 0.9990315 -0.04177584
vn -0.05345494 0.9934138 0.0141719
vn 0 1 0
vn -0.1004007 0.9873151 0.04943396
vn -0.2813115 -0.9530884 -0.1117425
vn -0.1192674 -0.9855504 -0.0134204
vn -0.1583613 -0.980246 -0.005879425
vn -0.1041282 -0.9933915 0.04094544
vn -0.1166266 -0.9910612 0.06477545
vn -0.03953747 -0.9975083 0.009577368
vn -6.427656E-08 -1 -4.005371E-09
vn -2.302009E-09 -0.5 5.296424E-08
vn 0 -0.3333333 0
vn -0.1183769 0.9466336 -0.2997861
vn -0.1802448 0.9481395 -0.2493349
vn -0.2421126 0.9496455 -0.1988838
vn -0.1152896 0.9932637 -0.011648
vn -0.1168626 0.9931115 -0.004718669
vn -0.1184357 0.9929593 0.002210658
vn -0.08501409 0.9461842 0.312263
vn -0.1209332 0.95232 0.03700973
vn -0.1568524 0.9584557 -0.2382436
vn -0.1079098 0.99267 -0.05442214
vn -0.1081129 0.9931664 -0.01219547
vn -0.108316 0.9936628 0.0300312
vn -0.05816135 0.9194329 0.388922
vn -0.08002311 0.9361438 0.3373664
vn -0.1018849 0.9528545 0.2858107
vn -0.1671516 0.8757033 -0.4529945
vn -0.1365777 0.8695503 -0.4731287
vn -0.1060037 0.8633973 -0.493263
vn -0.07072962 0.8911746 0.4481129
vn -0.1744649 0.9195879 0.3013527
vn -0.2782001 0.948001 0.1545925
vn -0.07973348 0.8422694 -0.5331275
vn -0.1793245 0.8299695 -0.5183686
vn -0.2789155 0.8176696 -0.5036096
vn 0.02478228 0.8645476 0.5019396
vn 0.0268936 0.8634365 0.5037314
vn 0.02900492 0.8623254 0.5055231
vn 0.181916 0.8364996 0.5168898
vn 0.2004065 0.8261822 0.5260494
vn 0.2188969 0.8158649 0.5352089
vn 0.1600927 0.8398265 0.5187116
vn 0.1725345 0.8381836 0.5172237
vn 0.1849763 0.8365408 0.5157357
vn -0.3679253 0.8526824 -0.370896
vn -0.3047416 0.870901 -0.3798162
vn -0.2415579 0.8891197 -0.3887364
vn -0.1921364 0.8923451 -0.4084163
vn -0.3803008 0.767993 -0.4604178
vn -0.5684652 0.643641 -0.5124193
vn 0.1908414 0.8502613 0.490546
vn 0.2040121 0.8500018 0.4854655
vn 0.2171828 0.8497423 0.4803849
vn -0.1340081 0.8220618 -0.5534042
vn -0.1470328 0.8144144 -0.5610911
vn -0.1600575 0.8067671 -0.568778
vn 0.1804792 0.8503652 0.4942735
vn 0.1916852 0.8524452 0.4862088
vn 0.2028911 0.8545252 0.4781441
vn 0.02857177 0.8683063 -0.4952047
vn 0.03067485 0.8700265 -0.4920321
vn 0.03277793 0.8717465 -0.4888595
vn -0.01739315 0.8003164 0.5993256
vn 0.1107414 0.8398112 0.5056721
vn 0.2388759 0.879306 0.4120186
vn 0.126043 0.9104949 -0.3938429
vn 0.1314911 0.9150501 -0.3810231
vn 0.1369392 0.9196053 -0.3682034
vn 0.2295282 0.9508571 -0.2078163
vn 0.2306295 0.9533679 -0.1941807
vn 0.2317309 0.9558789 -0.180545
vn 0.3373107 0.9413403 -0.009992778
vn 0.2207014 0.9309652 0.1832048
vn 0.104092 0.92059 0.3764025
vn 0.2743882 0.9524401 0.1325482
vn 0.2869416 0.9531796 0.07550949
vn 0.299495 0.9539191 0.01847074
vn 0.2889636 0.904588 0.3134018
vn 0.2948866 0.9080071 0.2970716
vn 0.3008098 0.9114262 0.2807415
vn 0.2576515 0.9621903 -0.08834919
vn 0.2578658 0.9619184 -0.09062584
vn 0.2580802 0.9616464 -0.09290248
vn 0.2748242 0.9582852 0.07849359
vn 0.2757888 0.9584079 0.07325628
vn 0.2767535 0.9585306 0.06801897
vn -0.1566326 0.9871181 -0.03262224
vn -0.2468231 0.9642726 -0.01046669
vn -0.3370136 0.9414272 0.01168887
vn -0.2288261 0.9673861 0.1086413
vn -0.1913423 0.9746188 -0.00112116
vn -0.1538585 0.9818515 -0.1108836
vn -0.2179743 0.9592531 -0.1797795
vn -0.2086776 0.9547834 0.02964155
vn -0.1993809 0.9503138 0.2390627
vn -0.2789246 0.9571941 0.07733331
vn -0.2691931 0.9613235 0.02661925
vn -0.2594617 0.9654528 -0.02409481
vn -0.0668988 0.9747702 0.2129496
vn -0.1114885 0.978901 0.05828748
vn -0.1560781 0.9830318 -0.0963747
vn -0.1090097 0.8596066 -0.4991928
vn -0.146731 0.8529161 -0.4995361
vn -0.1844523 0.8462257 -0.4998794
vn -0.2328976 0.9653918 -0.1173773
vn -0.1352655 0.9679111 0.06052617
vn -0.03763345 0.9704303 0.2384296
vn -0.2333596 0.8641786 -0.4458012
vn -0.0712132 0.8903226 -0.4177213
vn 0.0909332 0.9164665 -0.3896413
vn 0.002760471 0.9988381 0.04811189
vn 0.002552862 0.9988533 0.04780663
vn 0.002345253 0.9988684 0.04750137
vn 0.02613329 0.9976143 0.06389661
vn 0.02298576 0.9979136 0.06013211
vn 0.01983822 0.998213 0.0563676
vn 0.02354279 0.9975656 0.06564006
vn 0.02141721 0.9977118 0.0640732
vn 0.01929162 0.9978581 0.06250635
vn -0.2324718 0.9400364 -0.2495764
vn -0.3600444 0.8909476 -0.2404424
vn -0.487617 0.8418587 -0.2313084
vn -0.4977103 0.8379847 -0.2237546
vn -0.258299 0.9184999 -0.1319516
vn -0.01888765 0.9990152 -0.04014864
vn 0.03124193 0.9971202 0.06910377
vn 0.02839938 0.9973164 0.06739801
vn 0.02555684 0.9975126 0.06569225
vn -0.01177084 0.9990554 -0.04182868
vn -0.01081607 0.9990886 -0.04127612
vn -0.009861308 0.9991218 -0.04072355
vn 0.0306777 0.9969113 0.07229673
vn 0.02815561 0.9970574 0.07124903
vn 0.02563351 0.9972035 0.07020133
vn 0.002757518 0.9991501 -0.04112642
vn 0.002402856 0.9991295 -0.0416462
vn 0.04316816 0.9962894 0.07445744
vn 0.03913627 0.9965965 0.07241057
vn 0.03510438 0.9969035 0.07036369
vn 0.0143457 0.9991528 -0.03857183
vn 0.01372023 0.9991149 -0.03974356
vn 0.01309476 0.9990768 -0.04091529
vn 0.03687673 0.9989067 -0.02873157
vn 0.03703979 0.9988233 -0.03120789
vn 0.03720284 0.9987398 -0.03368422
vn 0.10676 0.9899416 0.09283307
vn 0.07381566 0.9930694 0.08489007
vn 0.04087129 0.9961971 0.07694706
vn 0.1625071 0.9866168 -0.0133715
vn 0.1418287 0.9887621 0.02257606
vn 0.1211503 0.9909075 0.05852363
vn 0.1072551 0.9891797 0.1000997
vn 0.1034181 0.9891652 0.1040512
vn 0.09958107 0.9891506 0.1080026
vn 0.122824 0.9907959 0.05690267
vn 0.1368111 0.9890035 0.002596896
vn 0.1507982 0.9872113 -0.05170888
vn 0.1665562 0.9851819 0.04093528
vn 0.1657369 0.9851819 0.0440191
vn 0.1649175 0.985182 0.04710291

usemtl Ground_2
f 5/5/5 3/3/3 4/4/4
f 6/6/6 7/7/7 5/5/5
f 3/3/3 5/5/5 7/7/7
f 8/8/8 3/3/3 7/7/7
f 8/8/8 2/2/2 3/3/3
f 8/8/8 9/9/9 2/2/2
f 2/2/2 9/9/9 1/1/1
f 9/9/9 10/10/10 1/1/1
f 10/10/10 11/11/11 1/1/1
f 11/11/11 12/12/12 1/1/1
f 1/1/1 12/12/12 25/25/14
f 25/25/14 12/12/12 24/24/13
f 12/12/12 13/13/13 24/24/13
f 13/13/13 23/23/13 24/24/13
f 13/13/13 14/14/13 23/23/13
f 14/14/13 22/22/13 23/23/13
f 15/15/13 22/22/13 14/14/13
f 15/15/13 21/21/13 22/22/13
f 15/15/13 20/20/13 21/21/13
f 20/20/13 15/15/13 16/16/13
f 17/17/13 18/18/13 16/16/13
f 20/20/13 16/16/13 18/18/13
f 18/18/13 19/19/13 20/20/13
f 46/46/22 50/50/21 48/48/21
f 48/48/21 47/47/23 46/46/22
f 47/47/23 48/48/21 49/49/21
f 47/47/23 44/44/22 46/46/22
f 45/45/21 46/46/22 44/44/22
f 43/43/21 45/45/21 44/44/22
f 42/42/21 43/43/21 44/44/22
f 41/41/21 43/43/21 42/42/21
f 41/41/21 42/42/21 40/40/21
f 39/39/21 41/41/21 40/40/21
f 39/39/21 40/40/21 37/37/21
f 39/39/21 37/37/21 38/38/21
f 38/38/21 37/37/21 34/34/21
f 34/34/21 37/37/21 36/36/21
f 34/34/21 36/36/21 35/35/21
f 34/34/21 35/35/21 33/33/21
f 34/34/21 33/33/21 32/32/21
f 32/32/21 33/33/21 31/31/20
f 27/27/16 32/32/21 31/31/20
f 29/29/18 27/27/16 31/31/20
f 29/29/18 28/28/17 27/27/16
f 28/28/17 29/29/18 30/30/19
f 26/26/15 27/27/16 28/28/17
f 52/54/26 27/52/25 26/51/24
f 26/51/24 51/53/25 52/54/26
f 51/58/29 26/56/28 28/55/27
f 28/55/27 53/57/28 51/58/29
f 55/62/32 30/60/31 29/59/30
f 29/59/30 54/61/31 55/62/32
f 53/66/35 28/64/34 30/63/33
f 30/63/33 55/65/34 53/66/35
f 54/70/38 29/68/37 31/67/36
f 31/67/36 56/69/37 54/70/38
f 57/74/41 32/72/40 27/71/39
f 27/71/39 52/73/40 57/74/41
f 56/78/44 31/76/43 33/75/42
f 33/75/42 58/77/43 56/78/44
f 59/81/47 34/34/46 32/79/45
f 32/79/45 57/80/46 59/81/47
f 58/85/50 33/83/49 35/82/48
f 35/82/48 60/84/49 58/85/50
f 60/89/53 35/87/52 36/86/51
f 36/86/51 61/88/52 60/89/53
f 61/93/56 36/91/55 37/90/54
f 37/90/54 62/92/55 61/93/56
f 63/96/59 38/94/58 34/34/57
f 34/34/57 59/95/58 63/96/59
f 64/100/62 39/98/61 38/97/60
f 38/97/60 63/99/61 64/100/62
f 62/104/65 37/102/64 40/101/63
f 40/101/63 65/103/64 62/104/65
f 66/108/68 41/106/67 39/105/66
f 39/105/66 64/107/67 66/108/68
f 65/112/71 40/110/70 42/109/69
f 42/109/69 67/111/70 65/112/71
f 68/116/74 43/114/73 41/113/72
f 41/113/72 66/115/73 68/116/74
f 67/120/77 42/118/76 44/117/75
f 44/117/75 69/119/76 67/120/77
f 70/124/80 45/122/79 43/121/78
f 43/121/78 68/123/79 70/124/80
f 71/128/83 46/126/82 45/125/81
f 45/125/81 70/127/82 71/128/83
f 69/132/86 44/130/85 47/129/84
f 47/129/84 72/131/85 69/132/86
f 74/136/89 49/134/88 48/133/87
f 48/133/87 73/135/88 74/136/89
f 72/140/92 47/138/91 49/137/90
f 49/137/90 74/139/91 72/140/92
f 75/144/95 50/142/94 46/141/93
f 46/141/93 71/143/94 75/144/95
f 73/148/98 48/146/97 50/145/96
f 50/145/96 75/147/97 73/148/98
f 3/152/101 52/150/100 51/149/99
f 51/149/99 4/151/100 3/152/101
f 4/156/104 51/154/103 53/153/102
f 53/153/102 5/155/103 4/156/104
f 6/160/107 55/158/106 54/157/105
f 54/157/105 7/159/106 6/160/107
f 5/164/110 53/162/109 55/161/108
f 55/161/108 6/163/109 5/164/110
f 7/168/113 54/166/112 56/165/111
f 56/165/111 8/167/112 7/168/113
f 2/172/116 57/170/115 52/169/114
f 52/169/114 3/171/115 2/172/116
f 8/176/119 56/174/118 58/173/117
f 58/173/117 9/175/118 8/176/119
f 1/180/122 59/178/121 57/177/120
f 57/177/120 2/179/121 1/180/122
f 9/184/125 58/182/124 60/181/123
f 60/181/123 10/183/124 9/184/125
f 10/188/128 60/186/127 61/185/126
f 61/185/126 11/187/127 10/188/128
f 11/192/131 61/190/130 62/189/129
f 62/189/129 12/191/130 11/192/131
f 25/196/134 63/194/133 59/193/132
f 59/193/132 1/195/133 25/196/134
f 24/200/137 64/198/136 63/197/135
f 63/197/135 25/199/136 24/200/137
f 12/204/140 62/202/139 65/201/138
f 65/201/138 13/203/139 12/204/140
f 23/208/143 66/206/142 64/205/141
f 64/205/141 24/207/142 23/208/143
f 13/212/146 65/210/145 67/209/144
f 67/209/144 14/211/145 13/212/146
f 22/216/148 68/214/147 66/213/147
f 66/213/147 23/215/147 22/216/148
f 14/220/151 67/218/150 69/217/149
f 69/217/149 15/219/150 14/220/151
f 21/224/154 70/222/153 68/221/152
f 68/221/152 22/223/153 21/224/154
f 20/228/157 71/226/156 70/225/155
f 70/225/155 21/227/156 20/228/157
f 15/232/160 69/230/159 72/229/158
f 72/229/158 16/231/159 15/232/160
f 17/236/163 74/234/162 73/233/161
f 73/233/161 18/235/162 17/236/163
f 16/240/166 72/238/165 74/237/164
f 74/237/164 17/239/165 16/240/166
f 19/244/169 75/242/168 71/241/167
f 71/241/167 20/243/168 19/244/169
f 18/248/172 73/246/171 75/245/170
f 75/245/170 19/247/171 18/248/172

